<mxfile host="app.diagrams.net" modified="2024-04-07T05:32:42.087Z" agent="Mozilla/5.0 (Macintosh; Intel Mac OS X 10.15; rv:123.0) Gecko/20100101 Firefox/123.0" etag="lxhNyOnNm8mZvvGHrE4n" version="24.2.2" type="github">
  <diagram name="Page-1" id="d66fe2ae-3e9f-cf2f-6d29-e24063ad5d60">
    <mxGraphModel dx="2122" dy="1544" grid="1" gridSize="10" guides="1" tooltips="1" connect="1" arrows="1" fold="1" page="1" pageScale="1" pageWidth="1100" pageHeight="850" background="none" math="0" shadow="0">
      <root>
        <mxCell id="0" />
        <mxCell id="1" parent="0" />
        <mxCell id="mLJ67Mt6gOwtkgKKo30Z-1" value="DHCPv6 Server" style="fontColor=#0066CC;verticalAlign=top;verticalLabelPosition=bottom;labelPosition=center;align=center;html=1;outlineConnect=0;fillColor=#CCCCCC;strokeColor=#6881B3;gradientColor=none;gradientDirection=north;strokeWidth=2;shape=mxgraph.networks.virtual_server;" vertex="1" parent="1">
          <mxGeometry x="-350" y="285" width="110" height="120" as="geometry" />
        </mxCell>
        <mxCell id="mLJ67Mt6gOwtkgKKo30Z-20" style="edgeStyle=none;rounded=0;orthogonalLoop=1;jettySize=auto;html=1;exitX=0;exitY=0.5;exitDx=0;exitDy=0;exitPerimeter=0;" edge="1" parent="1" source="mLJ67Mt6gOwtkgKKo30Z-2" target="mLJ67Mt6gOwtkgKKo30Z-5">
          <mxGeometry relative="1" as="geometry">
            <mxPoint x="-600" y="80" as="targetPoint" />
          </mxGeometry>
        </mxCell>
        <mxCell id="mLJ67Mt6gOwtkgKKo30Z-22" style="edgeStyle=none;rounded=0;orthogonalLoop=1;jettySize=auto;html=1;exitX=0;exitY=0.5;exitDx=0;exitDy=0;exitPerimeter=0;entryX=1;entryY=0.824;entryDx=0;entryDy=0;entryPerimeter=0;" edge="1" parent="1" source="mLJ67Mt6gOwtkgKKo30Z-2" target="mLJ67Mt6gOwtkgKKo30Z-17">
          <mxGeometry relative="1" as="geometry" />
        </mxCell>
        <mxCell id="mLJ67Mt6gOwtkgKKo30Z-2" value="&lt;div&gt;Access Switch&lt;/div&gt;&lt;div&gt;&lt;br&gt;&lt;/div&gt;" style="fontColor=#0066CC;verticalAlign=top;verticalLabelPosition=bottom;labelPosition=center;align=center;html=1;outlineConnect=0;fillColor=#CCCCCC;strokeColor=#6881B3;gradientColor=none;gradientDirection=north;strokeWidth=2;shape=mxgraph.networks.router;" vertex="1" parent="1">
          <mxGeometry x="-690" y="110" width="100" height="30" as="geometry" />
        </mxCell>
        <mxCell id="mLJ67Mt6gOwtkgKKo30Z-11" value="&lt;div&gt;Common customer VLAN assigned to customer ports&lt;br&gt;&lt;/div&gt;&lt;div&gt;2604:2940:f1b0:9e7:0:0:ffff:fffe/96&lt;br&gt;&lt;/div&gt;&lt;div&gt;DHCPv6 Relay and Snooping set for each customer port&lt;br&gt;&lt;/div&gt;" style="text;strokeColor=none;align=left;fillColor=none;html=1;verticalAlign=middle;whiteSpace=wrap;rounded=0;" vertex="1" parent="1">
          <mxGeometry x="-690" y="70" width="330" height="30" as="geometry" />
        </mxCell>
        <mxCell id="mLJ67Mt6gOwtkgKKo30Z-12" value="&lt;div&gt;DHCPv6 VLAN&lt;/div&gt;&lt;div&gt;2604:2940:f1b0::/64&lt;br&gt;&lt;/div&gt;&lt;div&gt;&lt;br&gt;&lt;/div&gt;&lt;div&gt;PD VLAN (/64)&lt;br&gt;&lt;/div&gt;&lt;div&gt;2604:2940:f1b0:8000::/49&lt;br&gt;&lt;/div&gt;&lt;div&gt;32,768 subnets&lt;br&gt;&lt;/div&gt;&lt;div&gt;&lt;br&gt;&lt;/div&gt;&lt;div&gt;PD VLAN (/60)&lt;/div&gt;&lt;div&gt;2604:2940:9e7::/48&lt;br&gt;&lt;/div&gt;&lt;div&gt;4096 subnets&lt;br&gt;&lt;/div&gt;" style="text;strokeColor=none;align=left;fillColor=none;html=1;verticalAlign=middle;whiteSpace=wrap;rounded=0;" vertex="1" parent="1">
          <mxGeometry x="-234" y="330" width="170" height="30" as="geometry" />
        </mxCell>
        <mxCell id="mLJ67Mt6gOwtkgKKo30Z-15" value="&lt;div&gt;WAN Address (Dynamic)&lt;br&gt;&lt;/div&gt;&lt;div&gt;2604:2940:f1b0:9e7:0:0::1/96&lt;br&gt;&lt;/div&gt;&lt;div&gt;PD: 2604:2940:f1b0:8001::/64&lt;br&gt;&lt;/div&gt;" style="text;strokeColor=none;align=left;fillColor=none;html=1;verticalAlign=middle;whiteSpace=wrap;rounded=0;" vertex="1" parent="1">
          <mxGeometry x="-1030" y="55" width="170" height="30" as="geometry" />
        </mxCell>
        <mxCell id="mLJ67Mt6gOwtkgKKo30Z-16" value="&lt;div&gt;WAN Address (Dynamic)&lt;br&gt;&lt;/div&gt;&lt;div&gt;2604:2940:f1b0:9e7:0:0::2/96&lt;br&gt;&lt;/div&gt;&lt;div&gt;PD: 2604:2940:f1b0:8002::/64&lt;/div&gt;" style="text;strokeColor=none;align=left;fillColor=none;html=1;verticalAlign=middle;whiteSpace=wrap;rounded=0;" vertex="1" parent="1">
          <mxGeometry x="-1030" y="110" width="170" height="30" as="geometry" />
        </mxCell>
        <mxCell id="mLJ67Mt6gOwtkgKKo30Z-17" value="Customer Router" style="fontColor=#0066CC;verticalAlign=top;verticalLabelPosition=bottom;labelPosition=center;align=center;html=1;outlineConnect=0;fillColor=#CCCCCC;strokeColor=#6881B3;gradientColor=none;gradientDirection=north;strokeWidth=2;shape=mxgraph.networks.wireless_modem;" vertex="1" parent="1">
          <mxGeometry x="-860" y="110" width="100" height="85" as="geometry" />
        </mxCell>
        <mxCell id="mLJ67Mt6gOwtkgKKo30Z-18" value="&lt;div&gt;WAN Address (Dynamic)&lt;br&gt;&lt;/div&gt;&lt;div&gt;2604:2940:f1b0:9e7:0:0::3/96&lt;/div&gt;&lt;div&gt;PD: 2604:2940:f1b0:8003::/64&lt;/div&gt;" style="text;strokeColor=none;align=left;fillColor=none;html=1;verticalAlign=middle;whiteSpace=wrap;rounded=0;" vertex="1" parent="1">
          <mxGeometry x="-1030" y="165" width="170" height="30" as="geometry" />
        </mxCell>
        <mxCell id="mLJ67Mt6gOwtkgKKo30Z-6" value="Customer Router" style="fontColor=#0066CC;verticalAlign=top;verticalLabelPosition=bottom;labelPosition=center;align=center;html=1;outlineConnect=0;fillColor=#CCCCCC;strokeColor=#6881B3;gradientColor=none;gradientDirection=north;strokeWidth=2;shape=mxgraph.networks.wireless_modem;" vertex="1" parent="1">
          <mxGeometry x="-860" y="55" width="100" height="85" as="geometry" />
        </mxCell>
        <mxCell id="mLJ67Mt6gOwtkgKKo30Z-5" value="Customer Router" style="fontColor=#0066CC;verticalAlign=top;verticalLabelPosition=bottom;labelPosition=center;align=center;html=1;outlineConnect=0;fillColor=#CCCCCC;strokeColor=#6881B3;gradientColor=none;gradientDirection=north;strokeWidth=2;shape=mxgraph.networks.wireless_modem;" vertex="1" parent="1">
          <mxGeometry x="-860" width="100" height="85" as="geometry" />
        </mxCell>
        <mxCell id="mLJ67Mt6gOwtkgKKo30Z-21" style="edgeStyle=none;rounded=0;orthogonalLoop=1;jettySize=auto;html=1;exitX=0;exitY=0.5;exitDx=0;exitDy=0;exitPerimeter=0;entryX=0.93;entryY=0.812;entryDx=0;entryDy=0;entryPerimeter=0;" edge="1" parent="1" source="mLJ67Mt6gOwtkgKKo30Z-2" target="mLJ67Mt6gOwtkgKKo30Z-6">
          <mxGeometry relative="1" as="geometry">
            <mxPoint x="-680" y="190" as="targetPoint" />
          </mxGeometry>
        </mxCell>
        <mxCell id="mLJ67Mt6gOwtkgKKo30Z-78" style="edgeStyle=none;rounded=0;orthogonalLoop=1;jettySize=auto;html=1;exitX=0;exitY=0.5;exitDx=0;exitDy=0;exitPerimeter=0;" edge="1" parent="1" source="mLJ67Mt6gOwtkgKKo30Z-80" target="mLJ67Mt6gOwtkgKKo30Z-87">
          <mxGeometry relative="1" as="geometry">
            <mxPoint x="-600" y="310" as="targetPoint" />
          </mxGeometry>
        </mxCell>
        <mxCell id="mLJ67Mt6gOwtkgKKo30Z-79" style="edgeStyle=none;rounded=0;orthogonalLoop=1;jettySize=auto;html=1;exitX=0;exitY=0.5;exitDx=0;exitDy=0;exitPerimeter=0;entryX=1;entryY=0.824;entryDx=0;entryDy=0;entryPerimeter=0;" edge="1" parent="1" source="mLJ67Mt6gOwtkgKKo30Z-80" target="mLJ67Mt6gOwtkgKKo30Z-84">
          <mxGeometry relative="1" as="geometry" />
        </mxCell>
        <mxCell id="mLJ67Mt6gOwtkgKKo30Z-80" value="&lt;div&gt;Access Switch&lt;/div&gt;&lt;div&gt;&lt;br&gt;&lt;/div&gt;" style="fontColor=#0066CC;verticalAlign=top;verticalLabelPosition=bottom;labelPosition=center;align=center;html=1;outlineConnect=0;fillColor=#CCCCCC;strokeColor=#6881B3;gradientColor=none;gradientDirection=north;strokeWidth=2;shape=mxgraph.networks.router;" vertex="1" parent="1">
          <mxGeometry x="-690" y="340" width="100" height="30" as="geometry" />
        </mxCell>
        <mxCell id="mLJ67Mt6gOwtkgKKo30Z-81" value="&lt;div&gt;Common customer VLAN assigned to customer ports&lt;br&gt;&lt;/div&gt;&lt;div&gt;2604:2940:f1b0:9e7:0:1:ffff:fffe/96&lt;br&gt;&lt;/div&gt;&lt;div&gt;DHCPv6 Relay and Snooping set for each customer port&lt;br&gt;&lt;/div&gt;" style="text;strokeColor=none;align=left;fillColor=none;html=1;verticalAlign=middle;whiteSpace=wrap;rounded=0;" vertex="1" parent="1">
          <mxGeometry x="-690" y="300" width="330" height="30" as="geometry" />
        </mxCell>
        <mxCell id="mLJ67Mt6gOwtkgKKo30Z-82" value="&lt;div&gt;WAN Address (Dynamic)&lt;br&gt;&lt;/div&gt;&lt;div&gt;2604:2940:f1b0:9e7:0:1::1/96&lt;br&gt;&lt;/div&gt;&lt;div&gt;PD: 2604:2940:f1b0:8001::/64&lt;br&gt;&lt;/div&gt;" style="text;strokeColor=none;align=left;fillColor=none;html=1;verticalAlign=middle;whiteSpace=wrap;rounded=0;" vertex="1" parent="1">
          <mxGeometry x="-1030" y="285" width="170" height="30" as="geometry" />
        </mxCell>
        <mxCell id="mLJ67Mt6gOwtkgKKo30Z-83" value="&lt;div&gt;WAN Address (Dynamic)&lt;br&gt;&lt;/div&gt;&lt;div&gt;2604:2940:f1b0:9e7:0:1::2/96&lt;br&gt;&lt;/div&gt;&lt;div&gt;PD: 2604:2940:f1b0:8002::/64&lt;/div&gt;" style="text;strokeColor=none;align=left;fillColor=none;html=1;verticalAlign=middle;whiteSpace=wrap;rounded=0;" vertex="1" parent="1">
          <mxGeometry x="-1030" y="340" width="170" height="30" as="geometry" />
        </mxCell>
        <mxCell id="mLJ67Mt6gOwtkgKKo30Z-84" value="Customer Router" style="fontColor=#0066CC;verticalAlign=top;verticalLabelPosition=bottom;labelPosition=center;align=center;html=1;outlineConnect=0;fillColor=#CCCCCC;strokeColor=#6881B3;gradientColor=none;gradientDirection=north;strokeWidth=2;shape=mxgraph.networks.wireless_modem;" vertex="1" parent="1">
          <mxGeometry x="-860" y="340" width="100" height="90" as="geometry" />
        </mxCell>
        <mxCell id="mLJ67Mt6gOwtkgKKo30Z-85" value="&lt;div&gt;WAN Address (Dynamic)&lt;br&gt;&lt;/div&gt;&lt;div&gt;2604:2940:f1b0:9e7:0:1::3/96&lt;/div&gt;&lt;div&gt;PD: 2604:2940:f1b0:8003::/64&lt;/div&gt;" style="text;strokeColor=none;align=left;fillColor=none;html=1;verticalAlign=middle;whiteSpace=wrap;rounded=0;" vertex="1" parent="1">
          <mxGeometry x="-1030" y="395" width="170" height="30" as="geometry" />
        </mxCell>
        <mxCell id="mLJ67Mt6gOwtkgKKo30Z-86" value="Customer Router" style="fontColor=#0066CC;verticalAlign=top;verticalLabelPosition=bottom;labelPosition=center;align=center;html=1;outlineConnect=0;fillColor=#CCCCCC;strokeColor=#6881B3;gradientColor=none;gradientDirection=north;strokeWidth=2;shape=mxgraph.networks.wireless_modem;" vertex="1" parent="1">
          <mxGeometry x="-860" y="285" width="100" height="85" as="geometry" />
        </mxCell>
        <mxCell id="mLJ67Mt6gOwtkgKKo30Z-87" value="Customer Router" style="fontColor=#0066CC;verticalAlign=top;verticalLabelPosition=bottom;labelPosition=center;align=center;html=1;outlineConnect=0;fillColor=#CCCCCC;strokeColor=#6881B3;gradientColor=none;gradientDirection=north;strokeWidth=2;shape=mxgraph.networks.wireless_modem;" vertex="1" parent="1">
          <mxGeometry x="-860" y="230" width="100" height="85" as="geometry" />
        </mxCell>
        <mxCell id="mLJ67Mt6gOwtkgKKo30Z-88" style="edgeStyle=none;rounded=0;orthogonalLoop=1;jettySize=auto;html=1;exitX=0;exitY=0.5;exitDx=0;exitDy=0;exitPerimeter=0;entryX=0.93;entryY=0.812;entryDx=0;entryDy=0;entryPerimeter=0;" edge="1" parent="1" source="mLJ67Mt6gOwtkgKKo30Z-80" target="mLJ67Mt6gOwtkgKKo30Z-86">
          <mxGeometry relative="1" as="geometry">
            <mxPoint x="-680" y="420" as="targetPoint" />
          </mxGeometry>
        </mxCell>
        <mxCell id="mLJ67Mt6gOwtkgKKo30Z-89" style="edgeStyle=none;rounded=0;orthogonalLoop=1;jettySize=auto;html=1;exitX=0;exitY=0.5;exitDx=0;exitDy=0;exitPerimeter=0;" edge="1" parent="1" source="mLJ67Mt6gOwtkgKKo30Z-91" target="mLJ67Mt6gOwtkgKKo30Z-98">
          <mxGeometry relative="1" as="geometry">
            <mxPoint x="-600" y="550" as="targetPoint" />
          </mxGeometry>
        </mxCell>
        <mxCell id="mLJ67Mt6gOwtkgKKo30Z-90" style="edgeStyle=none;rounded=0;orthogonalLoop=1;jettySize=auto;html=1;exitX=0;exitY=0.5;exitDx=0;exitDy=0;exitPerimeter=0;entryX=1;entryY=0.824;entryDx=0;entryDy=0;entryPerimeter=0;" edge="1" parent="1" source="mLJ67Mt6gOwtkgKKo30Z-91" target="mLJ67Mt6gOwtkgKKo30Z-95">
          <mxGeometry relative="1" as="geometry" />
        </mxCell>
        <mxCell id="mLJ67Mt6gOwtkgKKo30Z-91" value="&lt;div&gt;Access Switch&lt;/div&gt;&lt;div&gt;&lt;br&gt;&lt;/div&gt;" style="fontColor=#0066CC;verticalAlign=top;verticalLabelPosition=bottom;labelPosition=center;align=center;html=1;outlineConnect=0;fillColor=#CCCCCC;strokeColor=#6881B3;gradientColor=none;gradientDirection=north;strokeWidth=2;shape=mxgraph.networks.router;" vertex="1" parent="1">
          <mxGeometry x="-690" y="580" width="100" height="30" as="geometry" />
        </mxCell>
        <mxCell id="mLJ67Mt6gOwtkgKKo30Z-92" value="&lt;div&gt;Common customer VLAN assigned to customer ports&lt;br&gt;&lt;/div&gt;&lt;div&gt;2604:2940:f1b0:9e7:0:2:ffff:fffe/96&lt;br&gt;&lt;/div&gt;&lt;div&gt;DHCPv6 Relay and Snooping set for each customer port&lt;br&gt;&lt;/div&gt;" style="text;strokeColor=none;align=left;fillColor=none;html=1;verticalAlign=middle;whiteSpace=wrap;rounded=0;" vertex="1" parent="1">
          <mxGeometry x="-690" y="540" width="330" height="30" as="geometry" />
        </mxCell>
        <mxCell id="mLJ67Mt6gOwtkgKKo30Z-93" value="&lt;div&gt;WAN Address (Dynamic)&lt;br&gt;&lt;/div&gt;&lt;div&gt;2604:2940:f1b0:9e7:0:2::1/96&lt;br&gt;&lt;/div&gt;&lt;div&gt;PD: 2604:2940:f1b0:8001::/64&lt;br&gt;&lt;/div&gt;" style="text;strokeColor=none;align=left;fillColor=none;html=1;verticalAlign=middle;whiteSpace=wrap;rounded=0;" vertex="1" parent="1">
          <mxGeometry x="-1030" y="525" width="170" height="30" as="geometry" />
        </mxCell>
        <mxCell id="mLJ67Mt6gOwtkgKKo30Z-94" value="&lt;div&gt;WAN Address (Dynamic)&lt;br&gt;&lt;/div&gt;&lt;div&gt;2604:2940:f1b0:9e7:0:2::2/96&lt;br&gt;&lt;/div&gt;&lt;div&gt;PD: 2604:2940:f1b0:8002::/64&lt;/div&gt;" style="text;strokeColor=none;align=left;fillColor=none;html=1;verticalAlign=middle;whiteSpace=wrap;rounded=0;" vertex="1" parent="1">
          <mxGeometry x="-1030" y="580" width="170" height="30" as="geometry" />
        </mxCell>
        <mxCell id="mLJ67Mt6gOwtkgKKo30Z-95" value="Customer Router" style="fontColor=#0066CC;verticalAlign=top;verticalLabelPosition=bottom;labelPosition=center;align=center;html=1;outlineConnect=0;fillColor=#CCCCCC;strokeColor=#6881B3;gradientColor=none;gradientDirection=north;strokeWidth=2;shape=mxgraph.networks.wireless_modem;" vertex="1" parent="1">
          <mxGeometry x="-860" y="580" width="100" height="90" as="geometry" />
        </mxCell>
        <mxCell id="mLJ67Mt6gOwtkgKKo30Z-96" value="&lt;div&gt;WAN Address (Dynamic)&lt;br&gt;&lt;/div&gt;&lt;div&gt;2604:2940:f1b0:9e7:0:2::3/96&lt;/div&gt;&lt;div&gt;PD: 2604:2940:f1b0:8003::/64&lt;/div&gt;" style="text;strokeColor=none;align=left;fillColor=none;html=1;verticalAlign=middle;whiteSpace=wrap;rounded=0;" vertex="1" parent="1">
          <mxGeometry x="-1030" y="635" width="170" height="30" as="geometry" />
        </mxCell>
        <mxCell id="mLJ67Mt6gOwtkgKKo30Z-97" value="Customer Router" style="fontColor=#0066CC;verticalAlign=top;verticalLabelPosition=bottom;labelPosition=center;align=center;html=1;outlineConnect=0;fillColor=#CCCCCC;strokeColor=#6881B3;gradientColor=none;gradientDirection=north;strokeWidth=2;shape=mxgraph.networks.wireless_modem;" vertex="1" parent="1">
          <mxGeometry x="-860" y="525" width="100" height="85" as="geometry" />
        </mxCell>
        <mxCell id="mLJ67Mt6gOwtkgKKo30Z-98" value="Customer Router" style="fontColor=#0066CC;verticalAlign=top;verticalLabelPosition=bottom;labelPosition=center;align=center;html=1;outlineConnect=0;fillColor=#CCCCCC;strokeColor=#6881B3;gradientColor=none;gradientDirection=north;strokeWidth=2;shape=mxgraph.networks.wireless_modem;" vertex="1" parent="1">
          <mxGeometry x="-860" y="470" width="100" height="85" as="geometry" />
        </mxCell>
        <mxCell id="mLJ67Mt6gOwtkgKKo30Z-99" style="edgeStyle=none;rounded=0;orthogonalLoop=1;jettySize=auto;html=1;exitX=0;exitY=0.5;exitDx=0;exitDy=0;exitPerimeter=0;entryX=0.93;entryY=0.812;entryDx=0;entryDy=0;entryPerimeter=0;" edge="1" parent="1" source="mLJ67Mt6gOwtkgKKo30Z-91" target="mLJ67Mt6gOwtkgKKo30Z-97">
          <mxGeometry relative="1" as="geometry">
            <mxPoint x="-680" y="660" as="targetPoint" />
          </mxGeometry>
        </mxCell>
        <mxCell id="mLJ67Mt6gOwtkgKKo30Z-106" value="lo: fd00:f1b0:0:1000::101/128" style="text;strokeColor=none;align=center;fillColor=none;html=1;verticalAlign=middle;whiteSpace=wrap;rounded=0;" vertex="1" parent="1">
          <mxGeometry x="-350" y="425" width="170" height="30" as="geometry" />
        </mxCell>
        <mxCell id="mLJ67Mt6gOwtkgKKo30Z-107" value="lo: fd00:f1b0::1/128" style="text;strokeColor=none;align=center;fillColor=none;html=1;verticalAlign=middle;whiteSpace=wrap;rounded=0;" vertex="1" parent="1">
          <mxGeometry x="-690" y="160" width="110" height="30" as="geometry" />
        </mxCell>
        <mxCell id="mLJ67Mt6gOwtkgKKo30Z-108" value="lo: fd00:f1b0::2/128" style="text;strokeColor=none;align=center;fillColor=none;html=1;verticalAlign=middle;whiteSpace=wrap;rounded=0;" vertex="1" parent="1">
          <mxGeometry x="-690" y="390" width="110" height="30" as="geometry" />
        </mxCell>
        <mxCell id="mLJ67Mt6gOwtkgKKo30Z-109" value="lo: fd00:f1b0::3/128" style="text;strokeColor=none;align=center;fillColor=none;html=1;verticalAlign=middle;whiteSpace=wrap;rounded=0;" vertex="1" parent="1">
          <mxGeometry x="-690" y="630" width="110" height="30" as="geometry" />
        </mxCell>
        <mxCell id="mLJ67Mt6gOwtkgKKo30Z-110" value="c" style="shape=flexArrow;endArrow=classic;startArrow=classic;html=1;rounded=0;" edge="1" parent="1">
          <mxGeometry width="100" height="100" relative="1" as="geometry">
            <mxPoint x="-580" y="120" as="sourcePoint" />
            <mxPoint x="-360" y="270" as="targetPoint" />
          </mxGeometry>
        </mxCell>
        <mxCell id="mLJ67Mt6gOwtkgKKo30Z-111" value="DHCPv6 Relay" style="edgeLabel;html=1;align=center;verticalAlign=middle;resizable=0;points=[];rotation=35;" vertex="1" connectable="0" parent="mLJ67Mt6gOwtkgKKo30Z-110">
          <mxGeometry x="0.29" y="-5" relative="1" as="geometry">
            <mxPoint x="-19" y="-41" as="offset" />
          </mxGeometry>
        </mxCell>
        <mxCell id="mLJ67Mt6gOwtkgKKo30Z-112" value="" style="shape=flexArrow;endArrow=classic;startArrow=classic;html=1;rounded=0;" edge="1" parent="1">
          <mxGeometry width="100" height="100" relative="1" as="geometry">
            <mxPoint x="-580" y="369" as="sourcePoint" />
            <mxPoint x="-360" y="369" as="targetPoint" />
          </mxGeometry>
        </mxCell>
        <mxCell id="mLJ67Mt6gOwtkgKKo30Z-113" value="DHCPv6 Relay" style="edgeLabel;html=1;align=center;verticalAlign=middle;resizable=0;points=[];rotation=0;" vertex="1" connectable="0" parent="mLJ67Mt6gOwtkgKKo30Z-112">
          <mxGeometry x="0.29" y="-5" relative="1" as="geometry">
            <mxPoint x="-42" y="-25" as="offset" />
          </mxGeometry>
        </mxCell>
        <mxCell id="mLJ67Mt6gOwtkgKKo30Z-114" value="" style="shape=flexArrow;endArrow=classic;startArrow=classic;html=1;rounded=0;" edge="1" parent="1">
          <mxGeometry width="100" height="100" relative="1" as="geometry">
            <mxPoint x="-570" y="590" as="sourcePoint" />
            <mxPoint x="-370" y="430" as="targetPoint" />
          </mxGeometry>
        </mxCell>
        <mxCell id="mLJ67Mt6gOwtkgKKo30Z-115" value="DHCPv6 Relay" style="edgeLabel;html=1;align=center;verticalAlign=middle;resizable=0;points=[];rotation=-40;" vertex="1" connectable="0" parent="mLJ67Mt6gOwtkgKKo30Z-114">
          <mxGeometry x="0.29" y="-5" relative="1" as="geometry">
            <mxPoint x="-32" y="-11" as="offset" />
          </mxGeometry>
        </mxCell>
      </root>
    </mxGraphModel>
  </diagram>
</mxfile>
